
<global>
amp_veltrack=0
ampeg_release=0.50
</global>

<group>
group_label=Group_0-45
lpc_hicc1=42
lpc_locc1=0

<region>
hikey=a3
hivel=127
lokey=g#3
loop_end=271942
loop_mode=loop_continuous
loop_start=76151
loop_xfade=23724
lovel=1
lpc=0gs3Qu5Dj8I4K/NBQNuCwXwrX0FjKJTAaTagviN8MsB7JrJASF0DQO9nUsACDmpAAlpzP7vI37+k+pY/NHjrv2i74r9BsX5AcrdbwFalRUC9k1fAyVshwBq0rb8QZKdA
lpc_rms=-29.04
pitch_keycenter=a3
sample=Clarinet_trill_semitone_PP_A3.opus
</region>

<region>
hikey=a4
hivel=127
lokey=g#4
loop_end=259525
loop_mode=loop_continuous
loop_start=72674
loop_xfade=22641
lovel=1
lpc=MHeFQrX2rcL+4u1Aa83MQPHDI0HENBnAmFAjQCPa+j4POyDAttf1QC/8tMBZnSbAU1YeP9g4Lz6EQFbAaUEvQEIIlj9ynoFAKRFFQMf0msDSCKs/t6g/wBmH/z81XoU/
lpc_rms=-26.11
pitch_keycenter=a4
sample=Clarinet_trill_semitone_PP_A4.opus
</region>

<region>
hikey=a5
hivel=127
lokey=g#5
loop_end=274668
loop_mode=loop_continuous
loop_start=76914
loop_xfade=23962
lovel=1
lpc=vWCnQa25z8H2JQk/mfxsQOhQckB4dYpAZ+qIwMc4CD/4bJ6/JTaKvXn4v74KgqM/abcdQCWRjb/Lwj6/TUMAwNJooj9mDSw/VukWQMKBRT7DD9U8rEIHwHh+QMD5YRFA
lpc_rms=-27.36
pitch_keycenter=a5
sample=Clarinet_trill_semitone_PP_A5.opus
</region>

<region>
hikey=b3
hivel=127
lokey=a#3
loop_end=269622
loop_mode=loop_continuous
loop_start=75501
loop_xfade=23522
lovel=1
lpc=4ePQQrY0VcPahttCGDofwcB6pUGJVTvApnGoP1goMcFI14q/3nuIP0RmFEBoNEg/wR4YwFdoAsC/xpc+Z5+pvxbOf7749g5BU9DrvpzTfsALHww/hGruvyGBWcBDjJZA
lpc_rms=-26.71
pitch_keycenter=b3
sample=Clarinet_trill_semitone_PP_B3.opus
</region>

<region>
hikey=b4
hivel=127
lokey=a#4
loop_end=268625
loop_mode=loop_continuous
loop_start=75222
loop_xfade=23435
lovel=1
lpc=R/pVQo/zQMIWq/3Ay2YxwCJxMsEHDiJAgcqIQaHrucDg1hZBMwC6v3dnVUBbw4q/dNOVPk9m0MAmhHy+G3tLQNE/ob8MJQjAW6fHQMpdNL/vy1W/eU4awFLNaEAdeei/
lpc_rms=-25.86
pitch_keycenter=b4
sample=Clarinet_trill_semitone_PP_B4.opus
</region>

<region>
hikey=b5
hivel=127
lokey=a#5
loop_end=260464
loop_mode=loop_continuous
loop_start=72937
loop_xfade=22723
lovel=1
lpc=AD88QtJY28LHXdlCKSVuwhyw8UFwl1bBwtR/QLAXFMHqK5tBilAQwaOMJT5J1mlA0jtnP1tnlMAU+ANBEtFGwHfXKD+t0N1ALq8GwTq6wEC5raHAAsPSQAuYAMFumdlA
lpc_rms=-26.95
pitch_keycenter=b5
sample=Clarinet_trill_semitone_PP_B5.opus
</region>

<region>
hikey=c#4
hivel=127
lokey=c4
loop_end=269992
loop_mode=loop_continuous
loop_start=75605
loop_xfade=23554
lovel=1
lpc=G1DFQUrFBMKbZBtB5lhQwahrJ0GMMJfA2QkmQRbViMC/yotASfgLvrje47/CAkXAAXpKP8BtX7+1FCK8cNJ+v6L/Z0BYfpC/21EaQJ4f6b89aXW/GuxGwK6/sD6uLU1A
lpc_rms=-29.53
pitch_keycenter=c#4
sample=Clarinet_trill_semitone_PP_C#4.opus
</region>

<region>
hikey=c#5
hivel=127
lokey=c5
loop_end=264349
loop_mode=loop_continuous
loop_start=74025
loop_xfade=23062
lovel=1
lpc=UJuvQrc708Ka9U7As/aqwNEvwUF1otNBefClwbKRN8DXewHAPkq+QfgKksH35uq/OSQav94bwcAfPYC/dYRCQaK6hECHRAdA8dTXQLFpCsH6g+fAd08VQIuIPcBaHIVA
lpc_rms=-21.59
pitch_keycenter=c#5
sample=Clarinet_trill_semitone_PP_C#5.opus
</region>

<region>
hikey=c#6
hivel=127
lokey=c6
loop_end=267170
loop_mode=loop_continuous
loop_start=74815
loop_xfade=23308
lovel=1
lpc=zW8/QtYb1cLG9MpC9fUswvTV2UB+E78/MNerPg4QsEBE+ns/haVNQOfFW8G305lBx6XRv1YOLcAdvCq/LQHPP/EqJUHcTarAPSYewBLaF0DfefE/1VvEwFrdIEErUfS/
lpc_rms=-22.44
pitch_keycenter=c#6
sample=Clarinet_trill_semitone_PP_C#6.opus
</region>

<region>
hikey=d#4
hivel=127
lokey=d4
loop_end=270009
loop_mode=loop_continuous
loop_start=75610
loop_xfade=23555
lovel=1
lpc=1MEpQiDoX8KN3XVBVtLLwCh467+JFupAs3MOP81S57+Wxui/3xNGu3EnjUCvnlpAadAtv0oNLUBN/N3AEFvWPrMV6j5GwWu/20/SP6uRs8AA+WZA3tkswEEwfD+oi4dA
lpc_rms=-28.02
pitch_keycenter=d#4
sample=Clarinet_trill_semitone_PP_D#4.opus
</region>

<region>
hikey=d#5
hivel=127
lokey=d5
loop_end=255904
loop_mode=loop_continuous
loop_start=71660
loop_xfade=22325
lovel=1
lpc=QVjdQYKr28Hf4K+/0pPuP6w3zbxPH8g/LuuYQAiDY8AS2oY/+QWXQBQj/MCr0lBAxVDQP1z2nT9rFBLAKVEoQJB4gb+ziI5A71UGwNNKAMBhQCtA32YWwHg9677uaj1A
lpc_rms=-27.84
pitch_keycenter=d#5
sample=Clarinet_trill_semitone_PP_D#5.opus
</region>

<region>
hikey=d#6
hivel=127
lokey=d6
loop_end=272060
loop_mode=loop_continuous
loop_start=76184
loop_xfade=23734
lovel=1
lpc=/jsbQnMXocJqpJdCsxrswaIw4UBGLq7AuOmZQfubvsE/muFB9pM1wUBrSsB7JoBByIeePzQGOsGDrnpBHH9jwIsu10BfZebABEzjQLCBYsEELvVBrBOZwYccNL0AP85A
lpc_rms=-22.50
pitch_keycenter=d#6
sample=Clarinet_trill_semitone_PP_D#6.opus
</region>

<region>
hikey=f4
hivel=127
lokey=e4
loop_end=273095
loop_mode=loop_continuous
loop_start=76474
loop_xfade=23825
lovel=1
lpc=AVzgQgUkNsN4xWRCwDWRwII7z0E5oRc/hB79QCOHjcGyKZVAW/2pP+0LY8Cgzf4/0JeCwKuGqD+blvs8INDMP3IpsL5IAd1Accarv6jvh8CPa4jA6Fo9wLhMDT75PBlB
lpc_rms=-28.00
pitch_keycenter=f4
sample=Clarinet_trill_semitone_PP_F4.opus
</region>

<region>
hikey=f5
hivel=127
lokey=e5
loop_end=273258
loop_mode=loop_continuous
loop_start=76520
loop_xfade=23839
lovel=1
lpc=TMrvQYJcicJN2ItCSf0rwvJXjUGYpqc+/My5wC1+sj/wP71AuCWywGJj/D94iUtA46t3wL193j0nBp1A7ZuQwEr3BEAe3oU9X1u/v0OHR0COc3y+7Milv074EUC3gNm+
lpc_rms=-32.80
pitch_keycenter=f5
sample=Clarinet_trill_semitone_PP_F5.opus
</region>

<region>
hikey=f6
hivel=127
lokey=e6
loop_end=274149
loop_mode=loop_continuous
loop_start=76769
loop_xfade=23917
lovel=1
lpc=qaJBQvYXtsLzfK1CAkg4wtYCxkHIr1LAHQNtQEwxhsDoIIZBk3TvwO3SBkE8myVAWn8KQQVKL8GR/JVBqiFJwPnAs8EqvsVB9apCQd6X3sHfAdtBMBjQwdSFw0HKqR3B
lpc_rms=-16.82
pitch_keycenter=f6
sample=Clarinet_trill_semitone_PP_F6.opus
</region>

<region>
hivel=127
key=g3
loop_end=264930
loop_mode=loop_continuous
loop_start=74187
loop_xfade=23112
lovel=1
lpc=4HgHQlRYKMLo+DNBvr0EwWiqU0Bppi6/HuuMQOz+dsC6+bZANgsIvwzT38BGeyxAS+GXP8sfzb5gM4C+dHiUPhXLMj+HuGo8nbRgvwu8pb+LltM/YoCXv+iPPD+PZc0/
lpc_rms=-30.27
sample=Clarinet_trill_semitone_PP_G3.opus
</region>

<region>
hikey=g4
hivel=127
lokey=f#4
loop_end=263060
loop_mode=loop_continuous
loop_start=73664
loop_xfade=22949
lovel=1
lpc=bmUaQ9tPdsPiBKVCrQq4wcnkNULG8YTBu1s6QaIrScHBEK9AhmfuQH1I1L94G8I/eIj8wKPIEkBRIUG/AoZXwPJLAsCZQS9BpsusP1I4CcH+AZJATd3uv2lqDEGzUtrA
lpc_rms=-24.40
pitch_keycenter=g4
sample=Clarinet_trill_semitone_PP_G4.opus
</region>

<region>
hikey=g5
hivel=127
lokey=f#5
loop_end=272060
loop_mode=loop_continuous
loop_start=76184
loop_xfade=23734
lovel=1
lpc=bem0Qt+7aMPwMnRDtfAOw6mehkLuAY7BVOdQwXF/fEAhy6hBlz68wTAOUEDPIFdB8QIpQLEIlMG7QDpBa6O7wDuM+kAp3NRAX9WOwZ7oIkDfBTNBM1vdP4aw9sDCcX0/
lpc_rms=-21.47
pitch_keycenter=g5
sample=Clarinet_trill_semitone_PP_G5.opus
</region>

<region>
hikey=C7
hivel=127
lokey=f#6
loop_end=271453
loop_mode=loop_continuous
loop_start=76014
loop_xfade=23681
lovel=1
lpc=SYr6QV0NZcJxP1lCKVW6wRcNNT+qXC1BQN+pvxFKBsGAQoFBzqYIwSuphEDDeRpAKPivP5q/BsG5yO9AQ+y2wepqEUL7QwPCv6NQQR19aL8Y6FzAKjRowDfl8UA00AHB
lpc_rms=-23.88
pitch_keycenter=G6
sample=Clarinet_trill_semitone_PP_G6.opus
</region>
</group>

<group>
group_label=Group_46-90
lpc_hicc1=84
lpc_locc1=43

<region>
hikey=a5
hivel=127
lokey=g#5
loop_end=274137
loop_mode=loop_continuous
loop_start=76766
loop_xfade=23916
lovel=1
lpc=dU66QcLaQ8IViz5CvNKwwbfDzD9tAxFBzHgkwQOH8ECJETfAW7IGQBbKWz90bX7AAGCpQIOVtr/wWAI8jf7gPmY5uz9nu4K/oeBUP2WiHEB9mxrALnSMPwYBF0AktzzA
lpc_rms=-16.72
pitch_keycenter=a5
sample=Clarinet_trill_semitone_MF_A5.opus
</region>

<region>
hikey=b5
hivel=127
lokey=a#5
loop_end=270376
loop_mode=loop_continuous
loop_start=75712
loop_xfade=23588
lovel=1
lpc=EKKbQQGnKMJ9mTdC/QPmwTlRRUHmNZ6/ui8nQJdUEcG0FYpB5MVXwaWM9ED9TZ7AJvogQZDLEcECrPdA5rynwAhTtEAbYKO/D8KOvz283kB/6wjBzxLuQASpy8AUaoJA
lpc_rms=-15.28
pitch_keycenter=b5
sample=Clarinet_trill_semitone_MF_B5.opus
</region>

<region>
hikey=c#6
hivel=127
lokey=c6
loop_end=272070
loop_mode=loop_continuous
loop_start=76187
loop_xfade=23735
lovel=1
lpc=vOnsQTOyhcLnz45CLB4ewu+BPUHeBUW/WjUKQSsqaMH7YKVBl+53weyrHkFiufS/1/yRQOdXkcA3xvBAfP0GwaGjnEEnXajBCRuBQWdi0MBPYxPBeJLRQZwdtMFJYRVB
lpc_rms=-12.68
pitch_keycenter=c#6
sample=Clarinet_trill_semitone_MF_C#6.opus
</region>

<region>
hikey=d#6
hivel=127
lokey=d6
loop_end=271216
loop_mode=loop_continuous
loop_start=75947
loop_xfade=23661
lovel=1
lpc=i3iGQW1D18Gp77VBBrnJwMgaXkDzb37AustFQaxdQsGnmVhB5Q6BwN44GUCaSCVAJWNTQBt9a8DOwRBBMFSYwHeN2kAU0GnAAJ5cwHjdIEEGS4vAf7a+PFdtuD/pfgw/
lpc_rms=-19.79
pitch_keycenter=d#6
sample=Clarinet_trill_semitone_MF_D#6.opus
</region>

<region>
hikey=f6
hivel=127
lokey=e6
loop_end=273189
loop_mode=loop_continuous
loop_start=76500
loop_xfade=23833
lovel=1
lpc=1NUWQnvnfMJCnoRC5IHpwYODHkEQwz5BwkWZQIK3o8DLqZhBUduGQKBlhD49aplB5d2hPyNzBUE19M1AeUSDQTRP4MEyIhlCsot8wKG3EMEk4pBB9UtYwNGlgL60oudA
lpc_rms=-11.69
pitch_keycenter=f6
sample=Clarinet_trill_semitone_MF_F6.opus
</region>

<region>
hikey=C7
hivel=127
lokey=f#6
loop_end=274511
loop_mode=loop_continuous
loop_start=76870
loop_xfade=23948
lovel=1
lpc=ec3QQYXbEMJ+1hFC1R8dwc0NrkDPT91A7k8JQU5TesCXQndBnKDMP+QREEGYdRpBmLB3QOCDzUBpuAdB5JWDwZdfDkI1xJzBswEAQQe2v0B1dpE+b9A5wPWeG0FIgYHA
lpc_rms=-13.68
pitch_keycenter=G6
sample=Clarinet_trill_semitone_MF_G6.opus
</region>

<region>
hikey=a3
hivel=127
lokey=g#3
loop_end=272486
loop_mode=loop_continuous
loop_start=76303
loop_xfade=23772
lovel=1
lpc=SW1OQhi4G8Ox2jVDRwfQwufNHUJVwJvBRP8VPwqcnEAz2kVB/dQ0wR4koMCZr7FA6lf7wGzbSUHSRN+/0Y4YwRvQ0EAD3YBA1HDbwIr9ej8TRIBApkq0wH7sNUCkvwc+
lpc_rms=-17.73
pitch_keycenter=a3
sample=Clarinet_trill_semitone_MF_A3.opus
</region>

<region>
hikey=a4
hivel=127
lokey=g#4
loop_end=275769
loop_mode=loop_continuous
loop_start=77223
loop_xfade=24058
lovel=1
lpc=ExwPQkwjucJXA7dCgaETwnk29EC0eBXB3hfKQEjVM8CMnUtA2Z2IQNyQOsEmSR9BG2lrwFlCh8Bd5ZRAr9HUP71Ghz7f6K/AyFrQP4EQfz+O1lVAFLNXP44aB8Fr38pA
lpc_rms=-16.67
pitch_keycenter=a4
sample=Clarinet_trill_semitone_MF_A4.opus
</region>

<region>
hikey=b3
hivel=127
lokey=a#3
loop_end=272964
loop_mode=loop_continuous
loop_start=76437
loop_xfade=23813
lovel=1
lpc=WKoQQnH63sLfVAdD6zGawikqoUH8C6bA994ZQKEToMDEknRB+CWPwRW1fEFEW2PBBWo3QBaxnUBkzx9APBLMwMMFuL8WfA1BYI8ywb/SAkFWPp6/6univ9bPmr6Pg48/
lpc_rms=-18.29
pitch_keycenter=b3
sample=Clarinet_trill_semitone_MF_B3.opus
</region>

<region>
hikey=b4
hivel=127
lokey=a#4
loop_end=273099
loop_mode=loop_continuous
loop_start=76475
loop_xfade=23825
lovel=1
lpc=sG9WQvxd/ML7vuVCp3FMwlGay0EqYorB8hIqvnMNB8BfVVBBDbaGwLI/uMBtDiJAhGeAv8X0W0AudeO/ZN+Pv+rkKMCx1R5BXwYOwVfkWj8PRRlBHeEVweAlf0DpRB0/
lpc_rms=-16.34
pitch_keycenter=b4
sample=Clarinet_trill_semitone_MF_B4.opus
</region>

<region>
hikey=c#4
hivel=127
lokey=c4
loop_end=260224
loop_mode=loop_continuous
loop_start=72870
loop_xfade=22702
lovel=1
lpc=JjKjQXPBRcJTGx9CegFcwasgOUHcpUvBcd3WQAwU/sB8lhFBqrryv/NrSL/0ehLA1m1QQKcNmsCLbVFAMfqGPkemRT/71u2/rQypPxwUmb8wbJg/1V9pv9q+tj5v3fC9
lpc_rms=-19.04
pitch_keycenter=c#4
sample=Clarinet_trill_semitone_MF_C#4.opus
</region>

<region>
hikey=c#5
hivel=127
lokey=c5
loop_end=272498
loop_mode=loop_continuous
loop_start=76307
loop_xfade=23773
lovel=1
lpc=AyalQlNEOMPoGBlDC6o/wsuSIUGhu1rBBUSfwYwcMUJhN87B0vRLQU5ThsEpM1RBtCmNQINco8FM3ZdBVaFDwVeLuUAEmt1AiVEmwSSs80AcFvJAOzkrwZQH4UBXrpTA
lpc_rms=-11.59
pitch_keycenter=c#5
sample=Clarinet_trill_semitone_MF_C#5.opus
</region>

<region>
hikey=d#4
hivel=127
lokey=d4
loop_end=262323
loop_mode=loop_continuous
loop_start=73457
loop_xfade=22885
lovel=1
lpc=73QNQvUXvcIaTbdCGUsWwjsVG0E+T3fA7/CEwJ7VFz/uEc1AhHmOvwk4PcBcrtM/RX8SwPE6lL3+WLI/GGobQPD6hsD5HphAmCKLwOELGEC/68e/1m3SPwTHQsDCEh1A
lpc_rms=-18.90
pitch_keycenter=d#4
sample=Clarinet_trill_semitone_MF_D#4.opus
</region>

<region>
hikey=d#5
hivel=127
lokey=d5
loop_end=266941
loop_mode=loop_continuous
loop_start=74751
loop_xfade=23288
lovel=1
lpc=Z0XxQbnOlMI+Qp9CRFA0wr1BMkFgoqhAJjrfwA0EBMAuZoVBokSNwXPyDEHyBu6/NBW6PxWQnsB1AZZAET0/PuM36D74SkO/XVNYvm1VLECtxVLAAD22QPc5HcEtqeZA
lpc_rms=-14.27
pitch_keycenter=d#5
sample=Clarinet_trill_semitone_MF_D#5.opus
</region>

<region>
hikey=f4
hivel=127
lokey=e4
loop_end=272320
loop_mode=loop_continuous
loop_start=76257
loop_xfade=23757
lovel=1
lpc=MuhGQrkiC8PxZBJDvRmLwhrgukGwc1XBIMmUwAhPD0F3W5M/9uTwP9rX6MBHuFpAmPzdPh2jgMBwkOZA/ZDUwI4joEDuvpS/8/GJwAtIgkCzN6nAG8iRQWmex8GW4D5B
lpc_rms=-18.07
pitch_keycenter=f4
sample=Clarinet_trill_semitone_MF_F4.opus
</region>

<region>
hikey=f5
hivel=127
lokey=e5
loop_end=271758
loop_mode=loop_continuous
loop_start=76099
loop_xfade=23708
lovel=1
lpc=xOGiQSUBVMIuK4lCMSdnwpSEEUILTFvBYVKYPwpzCcC8LDNBZdyBwZApgEEbjfrAin0owOxn7kB3N0nAx5ISvqOyxb/lpSJB9nqcwVHNxEFOMavBI9aKQXINQ8H3QrtA
lpc_rms=-14.83
pitch_keycenter=f5
sample=Clarinet_trill_semitone_MF_F5.opus
</region>

<region>
hikey=g4
hivel=127
lokey=f#4
loop_end=272041
loop_mode=loop_continuous
loop_start=76179
loop_xfade=23733
lovel=1
lpc=x8hpQrMuJcOHJURDdnj+wv2Jd0J4QyDCvgbrQblxEsLeS11CclMbwtdzqcAORv1BEs20we87dcBWV3JB0VoUwSp7tEB2KIG/ZljtwCLvx0AkLrzAyEeeQWtY1MHzAFdB
lpc_rms=-13.25
pitch_keycenter=g4
sample=Clarinet_trill_semitone_MF_G4.opus
</region>

<region>
hikey=g5
hivel=127
lokey=f#5
loop_end=269262
loop_mode=loop_continuous
loop_start=75401
loop_xfade=23490
lovel=1
lpc=Za7zQWIVkcIc9rJClumWwvftR0L2lWHBB1OcwE1OjMBXB8lBaLsBwmVWAULFAqDBG3OPQPxs+EC6KdzAZjxJQKZOvr9DPshATRLFwKs450BJs4zAEq8DwP4WB0FkjzXA
lpc_rms=-11.93
pitch_keycenter=g5
sample=Clarinet_trill_semitone_MF_G5.opus
</region>

<region>
hivel=127
key=g3
loop_end=269124
loop_mode=loop_continuous
loop_start=75362
loop_xfade=23478
lovel=1
lpc=CygHQi/SpsLpq4ZC7Y+DwWE0Iz9rGwI/wN2bwPiqEcAMLyJBzM6RwI0B5b8adUw/SBNsQOR5F8FcWfJAc0UnwFwuGEDDRgRA4vKJwCaZHsBz3Z5APy3ovo2qCMBxj5M/
lpc_rms=-19.85
sample=Clarinet_trill_semitone_MF_G3.opus
</region>
</group>

<group>
group_label=Group_91-127
lpc_hicc1=127
lpc_locc1=85

<region>
hikey=a5
hivel=127
lokey=g#5
lovel=1
lpc=0YRSQb5O0cGeavhBEVe8wRlZVkHKQ7q/zfGmv7sqY8AvQSdBaJrxwC5c1z/9r7JA+LDPwBspP0BYKqBAP8rWwKRSkkD7wdM/iv6IwNDPoUCfwh8/39KDwMrCyUAH1D/A
lpc_rms=-11.68
pitch_keycenter=a5
sample=Clarinet_trill_semitone_FF_A5.opus
</region>

<region>
hikey=a6
hivel=127
lokey=g#6
lovel=1
lpc=pwHFQaZ0lsHyIshBxl9lwBP2EEGO11dBmKVGQHUywUA2fo9BF+5Wv9s9rkHp/AVAV8VEQcWbhsG5jpBBvgfNwM92Vj61q7FA7FYbwTx3d0A3DUhA7O9NwU47EUHO/k3B
lpc_rms=-9.37
pitch_keycenter=A6
sample=Clarinet_trill_semitone_FF_A6.opus
</region>

<region>
hikey=b5
hivel=127
lokey=a#5
lovel=1
lpc=eaYAQafVWMHT5oFBQDtIwWM8L0FNkcXAJ/nTQP2m48AAZhRBmZuowBBdiEDjyh7A0h94QNEbHMBRJqlAk7aVwAxso0AsdSrASquMQGz6EsCCsTNA5VGuv99ZAD+4m9U+
lpc_rms=-11.78
pitch_keycenter=b5
sample=Clarinet_trill_semitone_FF_B5.opus
</region>

<region>
hikey=c#6
hivel=127
lokey=c6
lovel=1
lpc=KLodQSIrhcEaLpxBGbpvwVZWNUEf77rAYj3AQCDkocB1aBVBqwvhwHkrxUBEiLi/6Xv2PzgWBL9fOJBAZKeLwOPi6EAntZDAw5GXQFPIu7+hBA3ABSiWQJsrUsAhCyFA
lpc_rms=-8.63
pitch_keycenter=c#6
sample=Clarinet_trill_semitone_FF_C#6.opus
</region>

<region>
hikey=d#6
hivel=127
lokey=d6
lovel=1
lpc=zV9jQY6Zn8FaDIxBdbGXwCuRXEAkO4fA2GxKQSokOME/7GxBNyS8wDtjsUAU07+9R2K5QJOMB8AWbbJAqRVfP2ymZD9LHoxAcK8+wIFpq79JteRAO513vyA/KcDd/INA
lpc_rms=-8.84
pitch_keycenter=d#6
sample=Clarinet_trill_semitone_FF_D#6.opus
</region>

<region>
hikey=f6
hivel=127
lokey=e6
lovel=1
lpc=QaKtQVPB6sENL/dBgKeCwUSQaEENcCY/CGuGQHUySr5BgURBl8uwv5JHHUEc60tA3oHXQOv6i0CqM5dA+7/0QMZ1kb7BFszAjnesQXNjTsEtVEtB18qPwIPX7T9w1ZJA
lpc_rms=-10.20
pitch_keycenter=f6
sample=Clarinet_trill_semitone_FF_F6.opus
</region>

<region>
hikey=g5
hivel=127
lokey=f#5
lovel=1
lpc=hHw7QcpMu8EdadZBN56pwRrfeEFyMMPAciaIPzMY7b9LRMhAT3qXwBgaZ0DqxmS/hwv7vmv29z/7y6k/EI34v655C0CkXDS/sXVEP3Yf3z/PCAC/bVsKP8R2jL/3DC5A
lpc_rms=-8.83
pitch_keycenter=g5
sample=Clarinet_trill_semitone_FF_G5.opus
</region>

<region>
hikey=g6
hivel=127
lokey=f#6
lovel=1
lpc=isnRQc6b4sFr3PlBQv3NwLFXPUEjJytAEuZ9QYSODcD+HWxBwf6UQETmUEFIKTJBgY0sQU8V20A1E4RB3c2CwW6O8kEiTMLAiQmnQLr8X0D+hsZAdn9Nv2fkmkCJnoNA
lpc_rms=-12.77
pitch_keycenter=g6
sample=Clarinet_trill_semitone_FF_G6.opus
</region>

<region>
hikey=a3
hivel=127
lokey=g#3
lovel=1
lpc=nHegQTLAYcISEIZCQwowwniTgUEazBjAaF0KvYy0hMCitwtBIXTIwE87RUDwRpjAouG9QG3js8A3Z55AkruNwN8xLkB6dJo/fXxNwKmpS0DSugzArasPQGmAJ8CH4Xg/
lpc_rms=-14.05
pitch_keycenter=a3
sample=Clarinet_trill_semitone_FF_A3.opus
</region>

<region>
hikey=a4
hivel=127
lokey=g#4
lovel=1
lpc=dYWAQXq4JMJqyDNCmkrVwbbaNUHob9/AQ9j3QD7TDcHqqaxAxAgVQDhXxsDVcntAMN0BwMzLA0AK3QPAahC5P3oWhb8dOOI/H+STv1hCm7+Ukrc+WvKUQK97yMDrZ1NA
lpc_rms=-15.33
pitch_keycenter=a4
sample=Clarinet_trill_semitone_FF_A4.opus
</region>

<region>
hikey=b3
hivel=127
lokey=a#3
lovel=1
lpc=MrO2QTxHhcLr3aJCjfVZwhvZq0G57UXAfz98wCbBRkAwN1m/xAZIQJK0nsC8lS5ASNLpP1VY2sCdpK9AfCZ8vybAJL+0XJ9AI68bwcue00AFXp2/mEK2P+4YK8D3c6k/
lpc_rms=-16.92
pitch_keycenter=b3
sample=Clarinet_trill_semitone_FF_B3.opus
</region>

<region>
hikey=b4
hivel=127
lokey=a#4
lovel=1
lpc=lha/QRrEV8ItllNCoP3dwU/7T0EZ0QzBYlqVQL95rsAEW/1AiGqGwDRNKD9vZ2XAPDmIQGCZsz9QH1vApnJIvtCRTr8gz4NA7mUZvzBWj8A80q1AZZvOv7+mujxzvcc/
lpc_rms=-12.79
pitch_keycenter=b4
sample=Clarinet_trill_semitone_FF_B4.opus
</region>

<region>
hikey=c#4
hivel=127
lokey=c4
lovel=1
lpc=FaOQQeznRMKXCVJC9+vgwfJ0KEFKy+LAt5TYQPNiBcH+mBtBW/WRwEljur5f+G2/huZmQBkwSMA2QPA+iOXWv50lOUCJI+w/8HeDwMslK78rG2VAplKMvhXeAcATZ0U/
lpc_rms=-17.11
pitch_keycenter=c#4
sample=Clarinet_trill_semitone_FF_C#4.opus
</region>

<region>
hikey=c#5
hivel=127
lokey=c5
lovel=1
lpc=25UWQoylncILTZdC5isWwvr7OkHxEw7BNX70QIQ5msDDO4e+w94DQbmeOMFZ1tVAPWXiPl3lIsA/GPa+lTxQQA5etcBlrKZAjJ8xQAWb0r9/8zy/UVQvQPAYl0BkX5/A
lpc_rms=-9.30
pitch_keycenter=c#5
sample=Clarinet_trill_semitone_FF_C#5.opus
</region>

<region>
hikey=d#4
hivel=127
lokey=d4
lovel=1
lpc=FUqaQZwrU8I7qGVC7If3wSiPQEHoDQvBh7aZQNIOXcATjc5AXGKUwHIJvr9cHmJA1k2HP/uGmMAlcX9AetaOwAP7vECrtAHAcOhFwN8zR0BhAEnAdFa9QLL51MA71kpA
lpc_rms=-18.02
pitch_keycenter=d#4
sample=Clarinet_trill_semitone_FF_D#4.opus
</region>

<region>
hikey=d#5
hivel=127
lokey=d5
lovel=1
lpc=vGhYQS4J4MG+xAZCan/kwblGmEEixsTAoWQLwDY5PzxXH7ZAYtXhwLWm4kB6bMfAP6/tP8hL2D9+CIC/2ISAu252Ub+DaHJAFBopwGeyi0AYDFHAERasP/GHMT8NBaO+
lpc_rms=-9.95
pitch_keycenter=d#5
sample=Clarinet_trill_semitone_FF_D#5.opus
</region>

<region>
hikey=f4
hivel=127
lokey=e4
lovel=1
lpc=8iapQb34aMLSBIdCnSgrwhO4lEFciBbBVSK0QPWgvcCC5/RAMfMxwLJpjsDhCZZA+J5iP77nmMCN2JtAXKfGwElcDEFhtq3Au7YJwAzNkEDC4XTAYa/eQGdxCMFMOYRA
lpc_rms=-13.96
pitch_keycenter=f4
sample=Clarinet_trill_semitone_FF_F4.opus
</region>

<region>
hikey=f5
hivel=127
lokey=e5
lovel=1
lpc=aCH9QJhvk8FMvL9Bff+2wQn1jUGzTiPB1ViOQOQSGcAQ425AtANHwH9nyz5d+gxA6iV+wAhyi0Bns5m/LsP+v70wWkBu++q/HHRgP7vPXb5upWS+0nMwPBDIkT814qS+
lpc_rms=-12.16
pitch_keycenter=f5
sample=Clarinet_trill_semitone_FF_F5.opus
</region>

<region>
hivel=127
key=g3
lovel=1
lpc=O52aQcq8W8KcjH1C3sIVwkJyO0FTRznAkesSQORBgcCLt5FAPvwgQM0q/8BAF39AAQshPihARj+DhQzAYVTIvQRQPT8h+j9AXamkwLD2NEAv74k+gcAUPwC0GcC2rJo/
lpc_rms=-15.54
sample=Clarinet_trill_semitone_FF_G3.opus
</region>

<region>
hikey=g4
hivel=127
lokey=f#4
lovel=1
lpc=FIvOQXgHicKLo55CQ25Ywl4H8EGm8KvBU7OsQajH3sE6H8pBLqeRwIvbXMH8pFxBFHf/v57z28CHYc9Azv3bv6CNDcBddEtApV6Vvm9xgsDJ5ro/wkwNQWqOUcG/N9hA
lpc_rms=-11.04
pitch_keycenter=g4
sample=Clarinet_trill_semitone_FF_G4.opus
</region>
</group>